<?xml version="1.0" standalone="no"?>
<!DOCTYPE svg PUBLIC "-//W3C//DTD SVG 20010904//EN"
 "http://www.w3.org/TR/2001/REC-SVG-20010904/DTD/svg10.dtd">
<svg version="1.0" xmlns="http://www.w3.org/2000/svg"
 width="570.000000pt" height="570.000000pt" viewBox="0 0 570.000000 570.000000"
 preserveAspectRatio="xMidYMid meet">
<metadata>
Created by potrace 1.14, written by Peter Selinger 2001-2017
</metadata>
<g transform="translate(0.000000,570.000000) scale(0.100000,-0.100000)"
fill="#000000" stroke="none">
<path d="M2890 3175 c0 -80 -3 -145 -6 -145 -3 0 -24 14 -45 31 -47 37 -87 49
-159 49 -128 -1 -211 -68 -245 -198 -43 -163 53 -312 217 -337 71 -11 139 9
193 57 l45 40 0 -46 c0 -46 0 -46 35 -46 l35 0 0 370 0 370 -35 0 -35 0 0
-145z m-102 -152 c108 -51 131 -249 37 -331 -120 -106 -299 -38 -321 121 -23
166 132 281 284 210z"/>
<path d="M4240 2950 l0 -370 35 0 35 0 0 370 0 370 -35 0 -35 0 0 -370z"/>
<path d="M1017 3279 c-104 -25 -201 -102 -246 -198 -23 -49 -26 -69 -26 -156
1 -89 4 -106 28 -152 37 -72 77 -114 137 -147 74 -40 141 -55 229 -52 81 4
135 21 188 62 38 29 41 44 14 68 -19 17 -21 17 -64 -13 -191 -131 -457 4 -457
234 0 116 52 206 151 260 46 25 65 29 129 30 94 0 117 -6 175 -50 l46 -36 19
23 c25 30 25 30 -7 60 -70 65 -204 93 -316 67z"/>
<path d="M1605 3098 c-63 -22 -110 -65 -147 -133 -31 -55 -32 -171 -2 -235 49
-104 133 -154 259 -154 85 -1 139 18 179 63 17 19 18 22 2 45 l-16 25 -45 -31
c-105 -74 -263 -34 -310 79 -28 66 -37 63 206 63 l222 0 -6 54 c-10 102 -69
183 -160 221 -41 17 -137 19 -182 3z m148 -62 c61 -22 96 -63 118 -138 l8 -28
-185 0 -186 0 7 33 c10 46 54 98 105 125 50 25 79 27 133 8z"/>
<path d="M2090 2845 l0 -265 34 0 34 0 4 168 c4 176 7 192 56 244 18 20 43 32
84 40 57 12 58 13 58 45 0 29 -3 33 -27 33 -51 0 -100 -20 -137 -56 l-36 -35
0 46 c0 45 0 45 -35 45 l-35 0 0 -265z"/>
<path d="M3226 3095 c-42 -15 -88 -45 -93 -61 -1 -5 4 -18 12 -28 15 -19 16
-19 75 9 44 21 75 29 113 28 95 -1 135 -33 144 -117 l5 -44 -109 0 c-165 -1
-217 -21 -249 -98 -18 -42 -18 -78 0 -112 56 -107 206 -134 320 -57 20 14 39
25 41 25 3 0 5 -13 5 -30 0 -28 3 -30 35 -30 l35 0 1 63 c5 296 -3 359 -55
411 -18 17 -51 37 -73 44 -54 16 -158 15 -207 -3z m254 -312 c0 -98 -72 -152
-187 -140 -69 7 -93 29 -100 88 -8 74 38 96 200 98 l87 1 0 -47z"/>
<path d="M3808 3100 c-41 -12 -87 -48 -104 -82 -22 -43 -14 -111 17 -145 30
-32 53 -41 169 -64 104 -21 140 -44 140 -89 0 -81 -133 -105 -270 -48 -51 21
-53 21 -66 3 -22 -30 -17 -43 24 -64 84 -43 216 -51 292 -18 75 31 120 115 95
174 -24 57 -78 83 -228 113 -32 6 -69 22 -84 34 -23 20 -25 27 -19 60 12 65
98 87 214 55 23 -6 45 -16 48 -20 10 -16 23 -9 38 20 13 25 14 31 1 41 -41 34
-197 51 -267 30z"/>
<path d="M4423 3078 c8 -18 60 -138 116 -267 l102 -235 -17 -38 c-34 -76 -104
-105 -175 -73 -21 10 -40 16 -42 14 -27 -46 -27 -48 -4 -63 33 -22 113 -39
149 -32 48 10 91 48 125 113 29 54 273 599 273 610 0 2 -17 3 -37 1 l-37 -3
-95 -217 -96 -217 -19 37 c-10 20 -39 84 -63 142 -25 58 -56 130 -70 160 -14
30 -29 65 -34 78 -7 18 -16 22 -49 22 l-40 0 13 -32z"/>
</g>
</svg>
